<svg xmlns="http://www.w3.org/2000/svg" xmlns:xlink="http://www.w3.org/1999/xlink" fill="none" version="1.1" width="54" height="54" viewBox="0 0 54 54"><defs><clipPath id="master_svg0_138_19236"><rect x="0" y="0" width="54" height="54.00001525878906" rx="0"/></clipPath></defs><g clip-path="url(#master_svg0_138_19236)"><path d="M49.02220523828125,23.384766015625L44.45465423828125,24.342777015625C44.46392423828125,24.580732015625,44.48555723828125,24.818691015625,44.48555723828125,25.053558015625C44.48555723828125,27.337336015625,44.05290223828125,29.512951015625,43.30813223828125,31.534044015625L47.00729023828125,35.421719015625C47.65936323828125,36.132507015625,48.09819423828125,37.248116015625,47.64699523828125,37.878551015625C47.20507023828125,38.512077015625,46.28105923828125,38.354473015625,45.48373823828125,37.850739015625L41.40446423828125,35.310459015625C40.01516323828125,37.414192015625,38.21440923828125,39.214935015625,36.11067923828125,40.604248015625L37.13049723828125,44.529011015625C37.32040423828125,45.261131015625,36.95127823828125,46.022911015625,36.25902223828125,46.327595015625C35.56678723828125,46.632862015625,34.75530623828125,46.395424015625,34.33681523828125,45.765156015625L32.229191238281246,42.541912015625C30.19049823828125,43.292656015625,28.03557023828125,43.678661015625,25.86305023828125,43.682255015625C24.90503523828125,43.682255015625,23.96556823828125,43.589542015625,23.04154823828125,43.444290015625L19.76576723828125,50.564484015625C19.65478523828125,51.507435015625,18.72761923828125,52.128170015625,17.81350523828125,51.871536015625C16.89939323828125,51.614887015625,16.430804238281247,50.602280015625,16.82683223828125,49.739357015625L17.747760238281252,41.797134015625C14.43112323828125,40.186462015625,11.66704273828125,37.627804015625,9.80553383828125,34.445171015625L5.31833053828125,34.290649015625C4.73629110828125,34.272388015625,4.21394878828125,33.928452015625,3.96719155828125,33.400990015625C3.72043428828125,32.873529015624996,3.79117431628125,32.252138015625,4.15017437828125,31.793638015625L7.43213913828125,27.572203015625C7.31413773828125,26.737740015625,7.25219223828125,25.896309015625,7.24671723828125,25.053558015625C7.24671723828125,21.851948015625,8.05021093828125,18.845028015625,9.47177743828125,16.215130015625L7.11692193828125,12.738473015625C6.46386073828125,11.746494315625,7.127471238281251,10.419271515625,8.31289103828125,10.346534715625L13.68393613828125,10.989329315625C16.31095023828125,8.709556615625,19.52739723828125,7.216474015625,22.96429023828125,6.681367415625L23.87285623828125,4.301790715625C24.26532923828125,2.951303065625,24.86795023828125,2.107634752625,25.78269723828125,2.076731188515C26.45948623828125,2.055098689625,26.80251723828125,3.152176415625,27.02193023828125,3.788790715625L27.58746523828125,6.517578615625C31.12044923828125,6.844155815625,34.485309238281246,8.178517315625001,37.28192123828125,10.361988115625L41.10779523828125,7.385969615625C41.68939623828125,7.043124215625,42.42639123828125,7.118468315625,42.92660123828125,7.571908515625C43.42680723828125,8.025347715625,43.57389823828125,8.751443415625001,43.28958923828125,9.363800015625L40.71532423828125,13.844824015625C42.14925423828125,15.742306015625,43.23087323828125,17.924099015625,43.85513323828125,20.288223015625L48.88932423828125,20.714691015625C49.71443923828125,20.875393015625,50.34488323828125,21.428566015625,50.38505923828125,22.074450015625C50.41287223828125,22.729607015625,49.82879223828125,23.254971015625,49.02220523828125,23.384766015625ZM24.48474923828125,28.122288015625C22.98877123828125,28.123138015625,21.77673523828125,29.336563015625,21.77759023828125,30.832535015625C21.77844023828125,32.328510015625,22.99186123828125,33.540543015625005,24.48783923828125,33.539688015625C25.98380623828125,33.539688015625,27.19653523828125,32.326962015625,27.19653523828125,30.830986015625C27.19653523828125,29.335012015625,25.98380623828125,28.122288015625,24.48783923828125,28.122288015625L24.48474923828125,28.122288015625ZM22.68924723828125,16.570521015624998C20.54214623828125,16.570521015624998,18.801575238281252,18.311092015625,18.801575238281252,20.458195015625C18.801575238281252,22.605295015625,20.54214623828125,24.345867015625,22.68924723828125,24.345867015625C24.83395723828125,24.345867015625,26.57692523828125,22.389667015625,26.57692523828125,20.458195015625C26.57692523828125,18.526718015625,24.84013723828125,16.567431015625,22.68615323828125,16.567431015625L22.68924723828125,16.570521015624998ZM31.15683323828125,22.235153015625C30.09010723828125,22.234299015625,29.22466823828125,23.098360015625,29.22381623828125,24.165081015625C29.22296123828125,25.231810015625,30.08702323828125,26.097248015625,31.15374423828125,26.098101015625C32.22046623828125,26.098953015625,33.08591223828125,25.234892015625,33.086765238281245,24.168165015625C33.08761223828125,23.101442015625,32.22355623828125,22.236000015625,31.15683323828125,22.235153015625Z" fill="#20558A" fill-opacity="1"/></g></svg>