<svg xmlns="http://www.w3.org/2000/svg" xmlns:xlink="http://www.w3.org/1999/xlink" fill="none" version="1.1" width="54" height="54" viewBox="0 0 54 54"><defs><clipPath id="master_svg0_150_33997"><rect x="0" y="0" width="54" height="54.00000762939453" rx="0"/></clipPath></defs><g clip-path="url(#master_svg0_150_33997)"><path d="M46.8714715078125,14.72369225C47.0157015078125,13.76270225,46.3825375078125,12.85693325,45.4304845078125,12.66228025C43.3690715078125,12.18194925,41.2276075078125,12.70230625,39.6265065078125,14.10326525C35.5837405078125,12.62224925,31.1807255078125,12.42211325,26.9978545078125,13.48283925C26.6376115078125,13.44281525,26.2773605078125,13.42279925,25.8971025078125,13.40278825C27.7984085078125,12.36207325,29.8197875078125,11.62156585,31.9412445078125,11.20127775L31.9612595078125,11.20127775C33.9025855078125,10.80100345,35.9039595078125,10.58085155,37.885316507812504,10.54082485C38.9060135078125,10.56083865,39.7465855078125,9.74027635,39.7465855078125,8.71957735C39.7666015078125,7.69887685,38.946043507812504,6.85830115,37.9253425078125,6.85830115L37.8252775078125,6.85830115C36.6644805078125,6.87831445,35.5437105078125,6.95836925,34.5029985078125,7.07845165C34.7431625078125,5.85761595,34.6831245078125,4.576738349999999,34.3428855078125,3.37591545C34.0431975078125,2.39500988,32.9950355078125,1.85285445,32.021303507812505,2.17509257C31.0406245078125,2.47529829,30.5002555078125,3.51601155,30.8204745078125,4.49668385C30.8204745078125,4.516697150000001,30.8404865078125,4.53671095,30.8404865078125,4.55672505C31.1006695078125,5.65747925,30.9205455078125,6.81827445,30.3601605078125,7.77893305C27.2380215078125,8.499426849999999,24.2759895078125,9.86036015,21.694222507812498,11.76166245C22.2064865078125,10.30224325,22.9870885078125,8.95146325,23.9957985078125,7.77893305C24.7162915078125,6.93835685,24.7563225078125,5.71752045,24.0958675078125,4.8169033500000005C23.1952495078125,3.63609455,21.414030507812498,3.51601155,20.4533715078125,4.6367797500000005C19.0430735078125,6.26766725,17.9502185078125,8.14792155,17.2311655078125,10.18057915C15.8953857078125,7.56558795,13.736294707812501,5.46276145,11.0869536078125,4.19647765C9.9661858078125,3.73616255,8.6853083078125,4.2765324499999995,8.2249931078125,5.39730095C8.2049799078125,5.43732835,8.1849651078125,5.49736925,8.1649517078125,5.53739665C7.5494912578125,6.44450045,7.7819542278125,7.67834045,8.6853083078125,8.29928975C8.7653632078125,8.35933115,8.8654313078125,8.39935775,8.9454862078125,8.45939925C11.6673517078125,9.80031915,13.5486402078125,12.40210125,13.9889417078125,15.40415925C6.6639219478125,19.04665525,6.2036066678125,26.91204825,7.8847581778125,33.05625525C9.7460337078125,39.82088825,16.5907230078125,51.92918825,23.9757865078125,51.92918825C31.9012165078125,51.92918825,38.7459035078125,39.28052125,40.5871695078125,33.05625525C42.4484365078125,27.23226725,40.6672215078125,20.86790325,36.044054507812504,16.865160250000002C38.7459035078125,17.40553225,41.1475485078125,18.92657625,42.7886735078125,21.14809425C43.3890875078125,21.96865425,44.5498805078125,22.14878225,45.3704415078125,21.54837025C46.1910095078125,20.94795825,46.3711285078125,19.78716325,45.7707215078125,18.96660025C45.0502285078125,17.985929249999998,44.2096515078125,17.08531325,43.2489965078125,16.30477725C43.7493365078125,16.244738249999997,44.2496755078125,16.26474925,44.7500225078125,16.324789250000002C45.7907295078125,16.44487325,46.7313805078125,15.74439325,46.8714715078125,14.72369225ZM36.2842195078125,30.87475825C36.0107095078125,31.63005825,35.1849445078125,32.029627250000004,34.422943507812505,31.77537725C33.650772507812505,31.50900825,33.245578507812496,30.66259925,33.5223295078125,29.89409025C34.422943507812505,27.33233225,33.6023865078125,24.45035725,31.5209565078125,22.70916525C30.8942945078125,22.18787225,30.8049695078125,21.25888825,31.3208235078125,20.62773525C31.8411755078125,20.00731325,32.7818225078125,19.90724325,33.4022465078125,20.42760325C36.4304545078125,22.97922125,37.5759015078125,27.13145025,36.2842195078125,30.87475825Z" fill="#20558A" fill-opacity="1"/></g></svg>