<svg xmlns="http://www.w3.org/2000/svg" xmlns:xlink="http://www.w3.org/1999/xlink" fill="none" version="1.1" width="20" height="20" viewBox="0 0 20 20"><defs><clipPath id="master_svg0_155_21287"><rect x="0" y="20" width="20" height="20" rx="0"/></clipPath></defs><g transform="matrix(1,0,0,-1,0,40)" clip-path="url(#master_svg0_155_21287)"><g><path d="M0.714111328125,35.71419906616211L0.714111328125,24.28562786616211Q0.714111328125,22.80629376616211,1.760158528125,21.76024626616211Q2.806205728125,20.71419906616211,4.285540128125,20.71419906616211L15.714111328125,20.71419906616211Q17.193443328125,20.71419906616211,18.239490328125,21.76024626616211Q19.285539328125,22.806294466162107,19.285539328125,24.28562786616211L19.285539328125,35.71419906616211Q19.285539328125,37.19353106616211,18.239490328125,38.23957806616211Q17.193443328125,39.28562706616211,15.714111328125,39.28562706616211L4.285540128125,39.28562706616211Q2.806206728125,39.28562706616211,1.760158528125,38.23957806616211Q0.714111328125,37.19353106616211,0.714111328125,35.71419906616211ZM2.1426828281250003,35.71419906616211Q2.1426828281250003,36.60179806616211,2.770310928125,37.22942706616211Q3.397941328125,37.85705806616211,4.285540128125,37.85705806616211L15.714111328125,37.85705806616211Q16.601708328125,37.85705806616211,17.229339328125,37.22942706616211Q17.856970328125,36.60179606616211,17.856970328125,35.71419906616211L17.856970328125,24.28562786616211Q17.856970328125,23.39802906616211,17.229339328125,22.77039866616211Q16.601710328125,22.14277056616211,15.714111328125,22.14277056616211L4.285540128125,22.14277056616211Q3.397939428125,22.14277056616211,2.770310928125,22.77039866616211Q2.1426828281250003,23.39802716616211,2.1426828281250003,24.28562786616211L2.1426828281250003,35.71419906616211ZM9.999973328125,28.62920756616211L14.256802328125,32.886036066162106C14.390832328125,33.01986306616211,14.572476328125,33.09510406616211,14.761878328125,33.09510406616211C15.156289328125,33.09510406616211,15.476021328125,32.77537106616211,15.476021328125,32.38096006616211C15.476021328125,32.19155906616211,15.400781328125,32.00991206616211,15.266954328125,31.87588506616211L10.505049728125,27.11397936616211L9.494897828125,27.11397936616211L4.733093228125,31.87598606616211C4.599165428125,32.00991206616211,4.523925828125,32.19155906616211,4.523925828125,32.38096006616211C4.523925828125,32.77537106616211,4.843658428125,33.09510406616211,5.238068628125,33.09510406616211C5.427471128125,33.09510406616211,5.609116528125,33.01986306616211,5.743145028125,32.886036066162106L9.999973328125,28.62920756616211Z" fill-rule="evenodd" fill="#0071BC" fill-opacity="1"/></g></g></svg>