<svg xmlns="http://www.w3.org/2000/svg" xmlns:xlink="http://www.w3.org/1999/xlink" fill="none" version="1.1" width="20" height="20" viewBox="340 1 20 20"><defs><clipPath id="master_svg0_146_40091"><rect x="340" y="1" width="20" height="20" rx="0"/></clipPath></defs><g clip-path="url(#master_svg0_146_40091)"><g><path d="M340.714111328125,16.71419906616211L340.714111328125,5.285627866162109Q340.714111328125,3.8062937661621095,341.760158528125,2.7602462661621097Q342.806205728125,1.7141990661621094,344.285540128125,1.7141990661621094L355.714111328125,1.7141990661621094Q357.193443328125,1.7141990661621094,358.239490328125,2.7602462661621097Q359.285539328125,3.806294466162109,359.285539328125,5.285627866162109L359.285539328125,16.71419906616211Q359.285539328125,18.19353106616211,358.239490328125,19.23957806616211Q357.193443328125,20.28562706616211,355.714111328125,20.28562706616211L344.285540128125,20.28562706616211Q342.806206728125,20.28562706616211,341.760158528125,19.23957806616211Q340.714111328125,18.19353106616211,340.714111328125,16.71419906616211ZM342.142682828125,16.71419906616211Q342.142682828125,17.60179806616211,342.770310928125,18.22942706616211Q343.397941328125,18.85705806616211,344.285540128125,18.85705806616211L355.714111328125,18.85705806616211Q356.601708328125,18.85705806616211,357.229339328125,18.22942706616211Q357.856970328125,17.60179606616211,357.856970328125,16.71419906616211L357.856970328125,5.285627866162109Q357.856970328125,4.39802906616211,357.229339328125,3.770398666162109Q356.601710328125,3.1427705661621097,355.714111328125,3.1427705661621097L344.285540128125,3.1427705661621097Q343.397939428125,3.1427705661621097,342.770310928125,3.770398666162109Q342.142682828125,4.398027166162109,342.142682828125,5.285627866162109L342.142682828125,16.71419906616211ZM349.999973328125,9.629207566162108L354.256802328125,13.88603606616211C354.390832328125,14.01986306616211,354.572476328125,14.09510406616211,354.761878328125,14.09510406616211C355.156289328125,14.09510406616211,355.476021328125,13.775371066162108,355.476021328125,13.380960066162109C355.476021328125,13.191559066162108,355.400781328125,13.009912066162109,355.266954328125,12.875885066162109L350.505049728125,8.11397936616211L349.494897828125,8.11397936616211L344.73309322812497,12.87598606616211C344.599165428125,13.009912066162109,344.523925828125,13.191559066162108,344.523925828125,13.380960066162109C344.523925828125,13.775371066162108,344.843658428125,14.09510406616211,345.238068628125,14.09510406616211C345.427471128125,14.09510406616211,345.609116528125,14.01986306616211,345.743145028125,13.88603606616211L349.999973328125,9.629207566162108Z" fill-rule="evenodd" fill="#0071BC" fill-opacity="1"/></g></g></svg>