<svg xmlns="http://www.w3.org/2000/svg" xmlns:xlink="http://www.w3.org/1999/xlink" fill="none" version="1.1" width="54" height="54" viewBox="0 0 54 54"><defs><clipPath id="master_svg0_150_34020"><rect x="0" y="0" width="54" height="54.00000762939453" rx="0"/></clipPath></defs><g clip-path="url(#master_svg0_150_34020)"><g><path d="M32.34289692077637,2.07666015625C33.758840920776365,2.07666015625,34.90685992077637,3.2231217562500003,34.90685992077637,4.64062185625L34.908414920776366,4.64062185625L34.908414920776366,10.62371735625L19.347070720776365,10.62371735625L19.347070720776365,4.64062185625C19.347070720776365,3.2246793562500002,20.49353122077637,2.07666015625,21.909472920776366,2.07666015625L32.34289692077637,2.07666015625ZM10.800046920776367,16.56968115625C10.800046920776367,14.13248015625,12.775789020776367,12.15673815625,15.212989820776368,12.15673815625L39.036338920776366,12.15673915625C41.474145920776365,12.15587915625,43.450837920776365,14.13187315625,43.450837920776365,16.56968115625L43.450837920776365,47.40887415625C43.44997592077637,49.84633215625,41.47379292077637,51.82181515625,39.036338920776366,51.82181515625L15.212989820776368,51.82181515625C12.775179720776368,51.82181515625,10.799186501126368,49.84512715625,10.800046920776367,47.40731415625L10.800046920776367,16.56968115625ZM35.84773792077637,45.02871715625C37.26368292077637,45.02871715625,38.411702920776364,43.87914315625,38.411702920776364,42.46320315625L38.41014492077637,42.46320315625L38.41014492077637,21.73498915625C38.41014492077637,20.31904615625,37.26212092077637,19.17102815625,35.846179920776365,19.17102815625L18.40314242077637,19.17102815625C16.987199820776368,19.17102815625,15.840738820776366,20.31748915625,15.840738820776366,21.73498915625L15.840738820776366,42.46320315625C15.839015920776367,43.87959315625,16.986747220776365,45.02872515625,18.40314242077637,45.02871715625L35.84773792077637,45.02871715625ZM22.412608920776368,34.14798715625L21.40945492077637,36.07017515625C19.791012720776365,34.63710015625,18.80499272077637,32.64325515625,18.801878020776368,30.44067715625C18.801878020776368,26.06667915625,22.775551920776365,22.51825315625,27.662030920776367,22.51825315625C32.54539692077637,22.51825315625,36.50504892077637,26.06667915625,36.50504892077637,30.44067715625C36.50504892077637,32.61833215625,35.52837392077637,34.59037015625,33.93953092077636,36.02344515625L32.98777792077637,34.24611615625L32.933259920776365,34.14798315625L32.933259920776365,38.44098315625C32.933259920776365,39.10923815625,32.54383692077637,39.71829215625,31.93322192077637,40.00023615625C31.06403192077637,40.40212215625,29.665223920776366,40.85696815625,27.767955920776366,40.85696815625C25.652608920776366,40.85696815625,24.094915920776366,40.29152715625,23.231954920776367,39.86783615625C22.750627920776367,39.62794915625,22.412608920776368,39.13260615625,22.412608920776368,38.59051915625L22.412608920776368,34.14798715625ZM23.088647920776367,31.00300615625C22.816051920776367,31.00300615625,22.635359920776366,31.13229415625,22.635359920776366,31.40333415625L22.633801920776367,31.40333415625L22.633801920776367,31.40489015625C22.633801920776367,32.77098815625,23.569974920776367,33.88785315625,24.713321920776366,33.88785315625C25.858224920776365,33.88785315625,26.795954920776367,32.77254715625,26.795954920776367,31.40489015625C26.795954920776367,31.13229515625,26.523358920776367,31.00300615625,26.24920592077637,31.00300615625L23.088647920776367,31.00300615625ZM29.282029920776367,31.00300615625C29.00943592077637,31.00300615625,28.767993920776366,31.13229415625,28.767993920776366,31.40333415625C28.767993920776366,32.77098415625,29.704164920776368,33.88785315625,30.845956920776366,33.88785315625C31.990859920776366,33.88785315625,32.93170392077637,32.772545156250004,32.93170392077637,31.40488815625L32.93170392077637,31.40333415625C32.93170392077637,31.13229515625,32.71362892077637,31.00300615625,32.44103092077637,31.00300615625L29.282029920776367,31.00300615625ZM28.067029920776367,33.87694315625C27.964223920776366,33.763235156250005,27.819358920776367,33.69781115625,27.666705920776366,33.69781115625C27.514585920776366,33.69959115625,27.370528920776366,33.76651615625,27.271050920776368,33.88161815625L26.070070920776367,35.27730915625L26.679128920776368,35.80381015625L27.334914920776367,35.45956015625C27.548192920776366,35.34720215625,27.80288892077637,35.34604615625,28.017186920776368,35.45644715625L28.705686920776365,35.80692315625L29.30851192077637,35.27419615625L28.067029920776367,33.87694315625Z" fill-rule="evenodd" fill="#20558A" fill-opacity="1"/></g></g></svg>